<svg width="160" height="60" viewBox="0 0 160 60" fill="none" xmlns="http://www.w3.org/2000/svg">
<path d="M15.1628 19.7695H9.72266V25.1662H15.1628V19.7695Z" fill="#8E8E8E"/>
<path d="M36.9441 19.7695H31.5039V25.1662H36.9441V19.7695Z" fill="#8E8E8E"/>
<path d="M20.603 25.168H9.72266V30.5646H20.603V25.168Z" fill="#8E8E8E"/>
<path d="M36.9428 25.168H26.0625V30.5646H36.9428V25.168Z" fill="#8E8E8E"/>
<path d="M36.9452 30.543H9.72266V35.9396H36.9452V30.543Z" fill="#8E8E8E"/>
<path d="M15.1628 35.9375H9.72266V41.3341H15.1628V35.9375Z" fill="#8E8E8E"/>
<path d="M26.0417 35.9375H20.6016V41.3341H26.0417V35.9375Z" fill="#8E8E8E"/>
<path d="M36.9441 35.9375H31.5039V41.3341H36.9441V35.9375Z" fill="#8E8E8E"/>
<path d="M20.6001 41.3359H4.25781V46.7326H20.6001V41.3359Z" fill="#8E8E8E"/>
<path d="M42.3852 41.3359H26.043V46.7326H42.3852V41.3359Z" fill="#8E8E8E"/>
<path d="M15.1628 19.7695H9.72266V25.1662H15.1628V19.7695Z" fill="#8E8E8E"/>
<path d="M36.9441 19.7695H31.5039V25.1662H36.9441V19.7695Z" fill="#8E8E8E"/>
<path d="M20.603 25.168H9.72266V30.5646H20.603V25.168Z" fill="#8E8E8E"/>
<path d="M36.9428 25.168H26.0625V30.5646H36.9428V25.168Z" fill="#8E8E8E"/>
<path d="M36.9452 30.543H9.72266V35.9396H36.9452V30.543Z" fill="#8E8E8E"/>
<path d="M15.1628 35.9375H9.72266V41.3341H15.1628V35.9375Z" fill="#8E8E8E"/>
<path d="M26.0417 35.9375H20.6016V41.3341H26.0417V35.9375Z" fill="#8E8E8E"/>
<path d="M36.9441 35.9375H31.5039V41.3341H36.9441V35.9375Z" fill="#8E8E8E"/>
<path d="M20.6001 41.3359H4.25781V46.7326H20.6001V41.3359Z" fill="#8E8E8E"/>
<path d="M42.3852 41.3359H26.043V46.7326H42.3852V41.3359Z" fill="#8E8E8E"/>
<path d="M52.6328 40.8328V24.6211H57.529L60.4666 35.6755L63.3826 24.6211H68.3005V40.8328H65.254V28.081L62.0334 40.8328H58.8781L55.6793 28.081V40.8328H52.6328Z" fill="#8E8E8E"/>
<path d="M71.5195 27.5169V24.6445H74.6313V27.5169H71.5195ZM71.5195 40.8344V29.0837H74.6313V40.8344H71.5195Z" fill="#8E8E8E"/>
<path d="M76.7193 37.485L79.8311 37.0062C79.9616 37.6155 80.2228 38.0725 80.6362 38.3771C81.0497 38.6818 81.6154 38.8559 82.3335 38.8559C83.0516 38.8559 83.748 38.7036 84.1397 38.4207C84.4226 38.2248 84.5531 37.9419 84.5531 37.5938C84.5531 37.2456 84.4879 37.1585 84.3355 37.0062C84.1832 36.8539 83.835 36.7233 83.291 36.5928C80.7885 36.0488 79.2 35.5265 78.5254 35.0695C77.5897 34.4385 77.1328 33.5463 77.1328 32.4365C77.1328 31.3267 77.5244 30.5651 78.3296 29.8687C79.1347 29.1724 80.3751 28.8242 82.0724 28.8242C83.7698 28.8242 84.8795 29.0853 85.6629 29.6076C86.4463 30.1299 86.9903 30.9132 87.2732 31.936L84.3355 32.48C84.205 32.023 83.9656 31.6749 83.6174 31.4355C83.2693 31.1961 82.7688 31.0656 82.1159 31.0656C81.4631 31.0656 80.7015 31.1744 80.3533 31.4137C80.114 31.5661 80.0052 31.7837 80.0052 32.0448C80.0052 32.3059 80.114 32.4582 80.3098 32.6106C80.5927 32.8064 81.5502 33.1111 83.204 33.481C84.8578 33.8509 86.0111 34.3079 86.6639 34.8737C87.3167 35.4177 87.6431 36.2011 87.6431 37.1803C87.6431 38.1595 87.1862 39.1823 86.294 39.9657C85.4018 40.7491 84.0744 41.119 82.3118 41.119C80.5492 41.119 79.4394 40.7926 78.5037 40.1398C77.568 39.4869 76.9587 38.6165 76.6758 37.5067L76.7193 37.485Z" fill="#8E8E8E"/>
<path d="M95.7804 29.1055V31.5862H93.6479V36.33C93.6479 37.2875 93.6479 37.8533 93.7131 38.0056C93.7567 38.1579 93.8437 38.2885 93.996 38.3973C94.1484 38.5061 94.3224 38.5496 94.5183 38.5496C94.7141 38.5496 95.2146 38.4408 95.7586 38.245L96.0198 40.6604C95.3017 40.965 94.4748 41.1174 93.5608 41.1174C92.6469 41.1174 92.4945 41.0303 92.0376 40.8345C91.5806 40.6386 91.2542 40.3993 91.0583 40.0946C90.8625 39.79 90.7102 39.3983 90.6231 38.876C90.5578 38.5061 90.5143 37.788 90.5143 36.6782V31.5645H89.0781V29.0837H90.5143V26.7553L93.6261 24.9492V29.1055H95.7586H95.7804Z" fill="#8E8E8E"/>
<path d="M100.916 40.8361H97.8047V29.0853H100.699V30.7609C101.199 29.9775 101.635 29.4553 102.026 29.1942C102.418 28.933 102.875 28.8242 103.375 28.8242C103.876 28.8242 104.768 29.0201 105.421 29.4118L104.463 32.1318C103.941 31.7837 103.462 31.6313 103.005 31.6313C102.549 31.6313 102.2 31.7619 101.896 32.0013C101.591 32.2406 101.352 32.6759 101.178 33.3069C101.004 33.938 100.916 35.2436 100.916 37.2456V40.8796V40.8361Z" fill="#8E8E8E"/>
<path d="M109.079 32.6759L106.25 32.1754C106.576 31.0438 107.12 30.1951 107.882 29.6511C108.665 29.1071 109.797 28.8242 111.342 28.8242C112.887 28.8242 113.757 28.9983 114.432 29.3247C115.107 29.6511 115.585 30.0646 115.868 30.5651C116.151 31.0656 116.282 32.0013 116.282 33.3504L116.238 36.9845C116.238 38.0072 116.282 38.7688 116.39 39.2693C116.499 39.7698 116.673 40.2921 116.956 40.8361H113.888C113.801 40.6402 113.714 40.3138 113.583 39.9221C113.54 39.7481 113.496 39.6175 113.474 39.5522C112.952 40.0745 112.386 40.4662 111.777 40.7055C111.168 40.9449 110.537 41.0972 109.84 41.0972C108.622 41.0972 107.686 40.7708 106.99 40.118C106.293 39.4652 105.945 38.6383 105.945 37.6373C105.945 36.6363 106.098 36.3752 106.424 35.8529C106.75 35.3307 107.186 34.939 107.751 34.6561C108.317 34.3732 109.144 34.1338 110.232 33.938C111.69 33.6551 112.691 33.4157 113.257 33.1763V32.8717C113.257 32.2842 113.105 31.849 112.822 31.5878C112.517 31.3267 111.973 31.1961 111.146 31.1961C110.319 31.1961 110.167 31.3049 109.862 31.5225C109.558 31.7401 109.296 32.1318 109.101 32.6759H109.079ZM113.235 35.2001C112.843 35.3307 112.212 35.483 111.342 35.6788C110.472 35.8529 109.906 36.0488 109.645 36.2228C109.231 36.5057 109.035 36.8757 109.035 37.3109C109.035 37.7461 109.188 38.116 109.514 38.4424C109.84 38.7688 110.254 38.9212 110.754 38.9212C111.255 38.9212 111.842 38.7471 112.365 38.3771C112.735 38.0942 112.996 37.7461 113.105 37.3544C113.192 37.0933 113.235 36.5928 113.235 35.8311V35.2218V35.2001Z" fill="#8E8E8E"/>
<path d="M119.348 40.8328V24.6211H122.459V40.8328H119.348Z" fill="#8E8E8E"/>
<path d="M145.746 40.8328H142.177L140.763 37.1552H134.278L132.95 40.8328H129.469L135.779 24.6211H139.239L145.724 40.8328H145.746ZM139.718 34.4351L137.477 28.4292L135.279 34.4351H139.696H139.718Z" fill="#8E8E8E"/>
<path d="M147.375 40.8328V24.6211H150.639V40.8328H147.375Z" fill="#8E8E8E"/>
</svg>
