<svg width="92" height="35" viewBox="0 0 92 35" fill="none" xmlns="http://www.w3.org/2000/svg">
<g clip-path="url(#clip0_64_161)">
<path d="M71.9442 0.0269196H70.4212V23C70.4212 24.4885 71.5058 25.8385 73.2366 25.8385H74.7596V2.85384C74.7596 1.36538 73.6866 0.0153809 71.9442 0.0153809V0.0269196ZM84.4519 22.2961C82.975 22.2961 81.2904 21.5461 80.7712 19.9308C82.1442 19.7923 84.6481 19.5269 86.875 18.5577C89.9096 17.2654 91.4442 15.1769 91.4442 12.35C91.4442 8.9 89.0096 6.92692 84.775 6.92692C82.2365 6.92692 79.9635 7.91923 78.3596 9.73076C76.825 11.4615 75.9827 13.8962 75.9827 16.5385C75.9827 22.4 79.2019 26.0231 84.3827 26.0231C86.2173 26.0231 88.6058 25.4 88.6981 25.3885C89.9212 25.0769 90.6365 24.3615 90.9135 23.1615L91.7096 19.6308C91.5366 19.8154 88.7096 22.2961 84.4635 22.2961H84.4519ZM84.8327 10.6192C85.7096 10.6308 87.1173 11.1269 87.1173 12.4192C87.1173 14.9346 83.575 15.8692 80.3673 16.2038C80.5289 12.8577 82.2827 10.6308 84.8327 10.6308V10.6192ZM27.7866 7.07692H27.3827C27.3827 7.07692 25.9981 7.07692 24.0366 7.59615C24.0366 7.59615 21.325 8.27692 21.0596 10.0423C20.7712 11.7961 20.6327 12.7769 20.6327 12.7769C20.6327 12.7769 25.3404 10.8038 27.6366 10.8038C28.2481 10.8038 30.0481 10.8038 30.2212 13.6077C29.1596 13.7115 27.5558 13.9538 25.9289 14.3808C22.0289 15.3731 19.7904 17.6808 19.7904 20.7154C19.7904 23.75 22.225 26.0808 25.3289 26.0808C27.6827 26.0808 29.3442 25.5731 30.5558 24.4769C31.0289 25.25 31.9289 25.8154 32.8289 25.8154H34.6173V12.7885C34.6173 9.46538 31.7789 7.06538 27.7866 7.06538V7.07692ZM30.2212 19.7923C30.2212 21.0731 28.3519 22.3423 26.425 22.3423C25.3058 22.3423 24.0942 21.6385 24.0942 20.5885C24.0942 19.5385 24.4635 18.8231 26.3327 18.2115C27.7635 17.7269 29.0904 17.4846 30.2327 17.3115L30.2096 19.7923H30.2212ZM48.8327 0.0269196H47.2981V8.6C46.2135 7.6423 44.7019 7.06538 43.0981 7.06538C40.825 7.06538 38.9558 8.01154 37.675 9.8C36.4404 11.5077 35.8058 13.9654 35.8058 16.9077C35.8058 19.85 36.4635 22.0538 37.6866 23.6692C38.9558 25.3192 40.7904 26.1846 43.0058 26.1846C44.9904 26.1846 46.525 25.5961 47.6212 24.4308C47.9673 25.25 48.8096 25.85 49.7096 25.85H51.625V2.81923C51.6366 1.28461 50.3904 0.0153809 48.8327 0.0153809V0.0269196ZM43.7327 22.4115C40.4558 22.4115 40.075 19.1346 40.075 16.6769C40.075 14.9577 40.4096 10.9538 43.5366 10.9538C46.825 10.9538 47.3327 14.3346 47.3327 16.3423C47.3327 20.4269 46.1558 22.4115 43.7327 22.4115ZM65.9442 0.0269196H64.4096V8.6C63.325 7.6423 61.8019 7.06538 60.1981 7.06538C57.925 7.06538 56.0558 8.01154 54.775 9.8C53.5404 11.5077 52.9058 13.9654 52.9058 16.9077C52.9058 19.85 53.5635 22.0538 54.7866 23.6692C56.0558 25.3192 57.8789 26.1846 60.1058 26.1846C62.0904 26.1846 63.625 25.5961 64.7212 24.4308C65.0558 25.25 65.9096 25.85 66.8096 25.85H68.725L68.7481 2.8423C68.7481 1.30769 67.4904 0.0384572 65.9442 0.0384572V0.0269196ZM61.0058 22.4115C57.7289 22.4115 57.3481 19.1346 57.3481 16.6769C57.3481 14.9577 57.6827 10.9538 60.8096 10.9538C64.1096 10.9538 64.6058 14.3346 64.6058 16.3423C64.6058 20.4269 63.4289 22.4115 61.0058 22.4115ZM18.8789 15.8231C18.6596 12.7308 17.6096 10.3769 15.7635 8.87692C14.0558 7.4923 11.6789 6.84615 8.87501 7.0423C7.60578 7.13461 4.61732 7.80384 3.15194 8.12692C1.59425 8.48461 1.16732 9.32692 0.971169 10.3654L0.313477 13.7462C0.313477 13.7462 3.30194 12.7192 5.13655 12.2808L3.71732 14.1615C3.39425 14.5885 3.15194 15.3154 3.15194 15.8577V34.2269L5.66732 33.2346C7.09809 32.7154 7.75578 31.4346 7.75578 30.1654V25.85C8.72501 26.2308 9.94809 26.3923 11.2519 26.3115C13.5942 26.1385 15.6481 25.0192 17.0442 23.1385C18.4519 21.2231 19.0866 18.6961 18.8789 15.8V15.8231ZM10.7904 21.9961C9.53271 22.0885 8.49425 21.8 7.75578 21.1423V11.6808C8.63271 11.5077 9.26732 11.3923 9.54425 11.3577C12.325 11.1615 14.0558 12.8231 14.275 15.8808C14.425 17.9115 13.8712 21.7769 10.7904 21.9846V21.9961Z" fill="#8E8E8E"/>
</g>
<defs>
<clipPath id="clip0_64_161">
<rect width="92" height="35" fill="white"/>
</clipPath>
</defs>
</svg>
