<svg width="160" height="60" viewBox="0 0 160 60" fill="none" xmlns="http://www.w3.org/2000/svg">
<path fill-rule="evenodd" clip-rule="evenodd" d="M27.9995 47C37.3878 47 44.9958 39.3886 44.9958 30C44.9958 23.2266 41.0359 17.3781 35.3044 14.6456C33.0915 13.5906 30.6146 13 27.9995 13C18.6112 13 11 20.6114 11 30C11 39.3886 18.6112 47 27.9995 47ZM35.3044 14.6456C32.2124 15.2858 29.7217 18.1553 29.7311 21.4192C29.7311 21.5284 29.7404 21.644 29.7528 21.6971C34.928 22.9589 37.2766 26.0822 37.2922 30.4017C37.3047 34.7243 33.8943 39.4593 28.1289 39.478C23.4597 39.4939 18.6001 35.5083 18.5782 29.1056C18.5626 24.8736 20.8488 20.7977 23.7658 18.3803C26.6142 16.0253 30.515 14.5105 34.0505 14.498C34.5064 14.498 35.0139 14.5456 35.3044 14.6456Z" fill="#8E8E8E"/>
<path d="M55.9782 37.0392L50.7812 24.6367H54.1761L57.418 32.8728L60.5599 24.6367H63.8018L58.7579 37.0392H55.9782Z" fill="#8E8E8E"/>
<path d="M72.834 30.7735C72.834 30.2581 72.7747 29.7678 72.6528 29.3024C72.5341 28.837 72.353 28.4372 72.1125 28.1031C71.872 27.7657 71.5816 27.5002 71.238 27.3035C70.8945 27.1036 70.4916 27.0036 70.0293 27.0036C69.5671 27.0036 69.1611 27.1036 68.8207 27.3035C68.4771 27.5002 68.1835 27.7657 67.9462 28.1031C67.7057 28.4372 67.5246 28.837 67.4059 29.3024C67.2841 29.7678 67.2247 30.2581 67.2247 30.7735C67.2247 31.3075 67.2841 31.8041 67.4059 32.2601C67.5246 32.7161 67.6995 33.1159 67.9306 33.4595C68.1617 33.803 68.4553 34.0747 68.8082 34.2746C69.158 34.4714 69.5671 34.5713 70.0293 34.5713C70.4916 34.5713 70.8945 34.4714 71.238 34.2746C71.5816 34.0747 71.872 33.803 72.1125 33.4595C72.353 33.1159 72.5341 32.7161 72.6528 32.2601C72.7746 31.8041 72.834 31.3075 72.834 30.7735ZM75.9728 30.787C75.9728 31.596 75.8479 32.3893 75.6011 33.1701C75.3513 33.9509 74.9827 34.6474 74.4924 35.2658C74.0052 35.8842 73.3868 36.3808 72.6403 36.7588C71.8939 37.1367 71.0225 37.3241 70.0294 37.3241C69.0331 37.3241 68.1617 37.1366 67.4184 36.7588C66.6719 36.3808 66.0535 35.8842 65.5632 35.2658C65.076 34.6474 64.7075 33.9509 64.4576 33.1701C64.2109 32.3893 64.0859 31.596 64.0859 30.787C64.0859 29.9813 64.2109 29.1942 64.4576 28.4196C64.7075 27.6481 65.076 26.9579 65.5632 26.3489C66.0535 25.7398 66.6719 25.2526 67.4184 24.8841C68.1617 24.5155 69.0331 24.3281 70.0294 24.3281C71.0225 24.3281 71.8908 24.5156 72.6278 24.8841C73.3649 25.2526 73.9833 25.7398 74.4799 26.3489C74.9796 26.9579 75.3513 27.6481 75.6011 28.4196C75.8479 29.1942 75.9728 29.9813 75.9728 30.787Z" fill="#8E8E8E"/>
<path d="M85.5704 27.3666C84.9551 27.1261 84.3836 27.0043 83.8526 27.0043C83.3092 27.0043 82.8376 27.1106 82.4472 27.3166C82.0537 27.5226 81.7289 27.8007 81.4728 28.1536C81.2166 28.5066 81.0261 28.9032 80.8981 29.3436C80.77 29.7809 80.7044 30.2338 80.7044 30.6991C80.7044 31.2145 80.7606 31.7079 80.8731 32.1826C80.9824 32.6543 81.1542 33.0697 81.3853 33.4226C81.6133 33.7755 81.9037 34.0597 82.2536 34.2752C82.6033 34.4876 83.0187 34.5969 83.4966 34.5969C83.8901 34.5969 84.2899 34.4877 84.699 34.2752C85.1081 34.0597 85.3986 33.8036 85.5704 33.5132V27.3666ZM85.8265 37.0393L85.6984 36.0899C85.408 36.4147 85.0238 36.702 84.5428 36.9488C84.065 37.1986 83.4997 37.3236 82.8501 37.3236C81.9975 37.3236 81.2416 37.1425 80.5951 36.7832C79.9424 36.4241 79.3958 35.9431 78.9523 35.3434C78.5089 34.7438 78.1684 34.0473 77.9373 33.2571C77.7093 32.47 77.5938 31.6455 77.5938 30.7866C77.5938 29.9808 77.7124 29.1906 77.9498 28.4191C78.1903 27.6477 78.5526 26.9574 79.0398 26.3484C79.5301 25.7393 80.1392 25.2521 80.8762 24.8836C81.6102 24.515 82.4753 24.3276 83.4653 24.3276C84.115 24.3276 84.8177 24.4493 85.5704 24.6868V19.877H88.7591V37.0393H85.8265Z" fill="#8E8E8E"/>
<path d="M97.7365 31.2224C97.393 31.2405 97.0369 31.2724 96.6746 31.313C96.3123 31.3568 95.9688 31.413 95.6409 31.4816C94.9475 31.619 94.4697 31.8533 94.2011 32.1875C93.9356 32.5248 93.8013 32.8871 93.8013 33.2838C93.8013 33.6929 93.9512 34.024 94.2542 34.2739C94.5571 34.5206 94.9819 34.6455 95.5347 34.6455C95.9501 34.6455 96.3529 34.5612 96.7402 34.3894C97.1275 34.2176 97.4617 34.0021 97.7365 33.746V31.2224ZM97.9926 37.0286L97.8677 36.1009C97.521 36.482 97.0838 36.7818 96.5497 36.9973C96.0156 37.2129 95.4316 37.3221 94.7945 37.3221C94.2604 37.3221 93.7451 37.2315 93.2579 37.0504C92.7644 36.8725 92.3303 36.6132 91.9524 36.279C91.5745 35.9448 91.2684 35.5356 91.0373 35.0453C90.8031 34.5549 90.6875 34.0021 90.6875 33.3837C90.6875 32.7684 90.8062 32.2218 91.0498 31.7502C91.2903 31.2786 91.6151 30.8819 92.0305 30.554C92.4427 30.2292 92.9174 29.9637 93.4515 29.7576C93.9825 29.5516 94.5446 29.3952 95.1287 29.2922C95.5409 29.2079 95.9938 29.1453 96.4841 29.1016C96.9745 29.0578 97.3836 29.0204 97.7115 28.986V28.8049C97.7115 28.1178 97.5366 27.6305 97.1806 27.3369C96.8277 27.0465 96.3405 26.8997 95.7221 26.8997C95.3598 26.8997 95.0131 26.9434 94.6852 27.0309C94.3572 27.1152 94.0668 27.2215 93.8076 27.3495C93.5483 27.4807 93.3203 27.6087 93.1205 27.7368C92.9237 27.8649 92.7644 27.9804 92.6426 28.0835L91.587 25.8472C91.7244 25.7255 91.9336 25.5817 92.2179 25.41C92.5021 25.2382 92.8425 25.0695 93.2485 24.9071C93.6514 24.7446 94.1042 24.6072 94.6102 24.4948C95.1162 24.3824 95.6627 24.3262 96.2436 24.3262C96.9307 24.3262 97.5585 24.4169 98.1238 24.5979C98.6891 24.779 99.1794 25.0602 99.5917 25.4474C100.001 25.8316 100.323 26.3189 100.557 26.9123C100.788 27.5026 100.903 28.2178 100.903 29.0579V37.0286H97.9926Z" fill="#8E8E8E"/>
<path d="M110.761 22.7069C110.658 22.657 110.458 22.582 110.158 22.4882C109.855 22.3946 109.458 22.3477 108.959 22.3477C108.515 22.3477 108.141 22.4821 107.841 22.7475C107.541 23.0129 107.391 23.4471 107.391 24.0467V24.6371H110.068V27.2106H107.416V37.0396H104.224V27.2106H102.578V24.6371H104.224V23.9687C104.224 23.1629 104.327 22.482 104.533 21.9229C104.739 21.367 105.027 20.911 105.395 20.5612C105.764 20.2082 106.198 19.949 106.694 19.7866C107.194 19.6241 107.734 19.543 108.319 19.543C109.09 19.543 109.727 19.6148 110.233 19.7617C110.739 19.9085 111.036 20.0053 111.12 20.0584L110.761 22.7069Z" fill="#8E8E8E"/>
<path d="M119.451 30.7735C119.451 30.2581 119.389 29.7678 119.27 29.3024C119.151 28.837 118.97 28.4372 118.73 28.1031C118.489 27.7657 118.199 27.5002 117.855 27.3035C117.512 27.1036 117.109 27.0036 116.647 27.0036C116.184 27.0036 115.778 27.1036 115.438 27.3035C115.094 27.5002 114.801 27.7657 114.56 28.1031C114.323 28.4372 114.142 28.837 114.02 29.3024C113.901 29.7678 113.842 30.2581 113.842 30.7735C113.842 31.3075 113.901 31.8041 114.02 32.2601C114.142 32.7161 114.317 33.1159 114.548 33.4595C114.779 33.803 115.072 34.0747 115.422 34.2746C115.775 34.4714 116.184 34.5713 116.647 34.5713C117.109 34.5713 117.512 34.4714 117.855 34.2746C118.199 34.0747 118.489 33.803 118.73 33.4595C118.97 33.1159 119.151 32.7161 119.27 32.2601C119.389 31.8041 119.451 31.3075 119.451 30.7735ZM122.59 30.787C122.59 31.596 122.465 32.3893 122.215 33.1701C121.968 33.9509 121.6 34.6474 121.11 35.2658C120.622 35.8842 120.004 36.3808 119.258 36.7588C118.511 37.1367 117.64 37.3241 116.647 37.3241C115.65 37.3241 114.779 37.1366 114.036 36.7588C113.289 36.3808 112.671 35.8842 112.18 35.2658C111.693 34.6474 111.325 33.9509 111.075 33.1701C110.825 32.3893 110.703 31.596 110.703 30.787C110.703 29.9813 110.825 29.1942 111.075 28.4196C111.325 27.6481 111.693 26.9579 112.18 26.3489C112.671 25.7398 113.289 25.2526 114.036 24.8841C114.779 24.5155 115.65 24.3281 116.647 24.3281C117.64 24.3281 118.508 24.5156 119.245 24.8841C119.982 25.2526 120.601 25.7398 121.097 26.3489C121.597 26.9579 121.968 27.6481 122.215 28.4196C122.465 29.1942 122.59 29.9813 122.59 30.787Z" fill="#8E8E8E"/>
<path d="M132.5 37.0426V29.9684C132.5 29.0251 132.303 28.2943 131.91 27.779C131.513 27.2667 130.967 27.0075 130.261 27.0075C129.764 27.0075 129.305 27.1355 128.887 27.3948C128.465 27.6509 128.1 27.9351 127.79 28.2443V37.0426H124.602V24.64H127.509L127.662 25.6177C128.162 25.2085 128.721 24.8899 129.349 24.6682C129.973 24.4433 130.604 24.334 131.238 24.334C131.891 24.334 132.491 24.4308 133.04 24.6276C133.59 24.8275 134.062 25.1398 134.455 25.5676C134.852 25.9955 135.155 26.5546 135.37 27.2386C135.583 27.9257 135.692 28.7503 135.692 29.7091V37.0426H132.5Z" fill="#8E8E8E"/>
<path d="M145.619 29.3453C145.584 28.9174 145.494 28.5426 145.347 28.2272C145.2 27.9086 145.019 27.6525 144.804 27.4557C144.588 27.2558 144.357 27.1122 144.107 27.0154C143.854 26.9217 143.601 26.8748 143.342 26.8748C142.789 26.8748 142.264 27.0809 141.765 27.4933C141.265 27.9055 140.971 28.5208 140.884 29.3453H145.619ZM140.809 31.6347C140.878 32.681 141.203 33.4368 141.79 33.8991C142.374 34.3613 143.133 34.5955 144.06 34.5955C144.491 34.5955 144.897 34.555 145.275 34.48C145.653 34.402 145.99 34.305 146.284 34.1833C146.578 34.0645 146.827 33.9428 147.034 33.8241C147.24 33.7024 147.393 33.5898 147.499 33.4868L148.348 36.0884C148.227 36.1728 148.033 36.2884 147.768 36.4351C147.502 36.582 147.171 36.7163 146.777 36.8474C146.384 36.9755 145.919 37.0848 145.388 37.1816C144.857 37.2752 144.273 37.3221 143.639 37.3221C142.83 37.3221 142.065 37.1941 141.334 36.938C140.606 36.6787 139.966 36.279 139.419 35.7386C138.87 35.1983 138.432 34.5268 138.108 33.721C137.78 32.9152 137.617 31.9532 137.617 30.8382C137.617 29.7919 137.767 28.8643 138.067 28.0585C138.367 27.2527 138.779 26.5749 139.301 26.0252C139.825 25.4786 140.434 25.057 141.128 24.7634C141.824 24.473 142.564 24.3262 143.354 24.3262C144.145 24.3262 144.872 24.4574 145.544 24.7134C146.212 24.9695 146.79 25.3694 147.28 25.9097C147.768 26.45 148.155 27.1496 148.436 28.0085C148.72 28.8643 148.861 29.8856 148.861 31.0693V31.6346L140.809 31.6347Z" fill="#8E8E8E"/>
</svg>
