<svg width="111" height="60" viewBox="0 0 111 60" fill="none" xmlns="http://www.w3.org/2000/svg">
<g clip-path="url(#clip0_64_137)">
<path d="M86.4773 5.51107L81.9869 6.6843C81.8399 6.72899 81.7156 6.84073 81.6816 6.98597L80.4938 11.4219C80.4487 11.5672 80.494 11.7235 80.6071 11.8354L83.627 14.8186L89.927 8.59498L86.9184 5.61163C86.794 5.52224 86.6356 5.47755 86.4773 5.51107Z" fill="#8E8E8E"/>
<path d="M98.1643 7.00824L99.3518 11.4442C99.3858 11.5895 99.3405 11.7458 99.2501 11.8687L96.2415 14.8409L89.9414 8.61725L92.95 5.64507C93.0632 5.53334 93.2215 5.49981 93.3686 5.53334L97.8589 6.70657C98.006 6.74009 98.119 6.863 98.1643 7.00824Z" fill="#8E8E8E"/>
<path d="M81.6715 22.6622L80.4839 18.2264C80.45 18.081 80.4952 17.9135 80.5857 17.8018L83.6056 14.8184L83.6169 14.8296L89.917 8.6059L99.1914 17.7682C99.3272 17.9023 99.3838 18.1035 99.3385 18.2711L98.1735 22.5952C98.1282 22.7851 97.9812 22.9304 97.789 22.9751L93.4117 24.126C93.2307 24.1819 93.0271 24.126 92.8915 23.9918L89.9166 21.0533L89.9057 21.042L86.897 24.0255C86.7839 24.1372 86.6256 24.1707 86.4785 24.1372L81.9769 22.964C81.8298 22.9305 81.7167 22.8075 81.6715 22.6622Z" fill="#8E8E8E"/>
<path d="M63.1462 19.6343C64.0851 18.5169 65.3179 17.936 67.1841 17.936C70.272 17.936 72.1947 19.1986 72.1947 22.2377C72.1947 22.4389 72.0251 22.6624 71.7877 22.6624H69.7742C69.5708 22.6624 69.3558 22.4948 69.3445 22.2489C69.2879 21.3439 69.0617 20.1706 67.6479 20.1706C66.3923 20.1706 65.7929 21.3216 65.7929 22.4836V24.8636C65.7929 25.0312 65.9286 25.1653 66.0983 25.1653H69.4914C69.8647 25.1653 70.0571 25.5787 69.8421 25.8579C69.5141 26.2715 68.9034 27.0647 68.598 27.467C68.5188 27.5788 68.3831 27.6346 68.2588 27.6346H66.1549C65.9852 27.6346 65.8495 27.7687 65.8495 27.9362V38.663C65.8495 38.8306 65.9852 38.9647 66.1549 38.9647H67.3312C67.5687 38.9647 67.761 39.1546 67.761 39.3893V40.9759C67.761 41.2106 67.5687 41.4005 67.3312 41.4005H60.4995C60.1263 41.4005 59.934 40.987 60.1602 40.7077C60.5221 40.2496 61.246 39.3446 61.6192 38.8864C61.6758 38.8193 61.6984 38.7188 61.6984 38.6518V27.9252C61.6984 27.7576 61.5628 27.6234 61.3932 27.6234H59.3911C59.3119 27.6234 59.1761 27.6682 59.1197 27.7911C58.1696 29.9029 51.089 45.356 51.089 45.356C50.1051 47.5236 48.4197 48.5739 46.3838 48.4957C44.7324 48.4287 43.6014 47.5125 42.9001 46.8308C42.7305 46.6633 42.7644 46.3838 42.8888 46.2497C43.1187 46.0075 43.4887 45.627 43.7738 45.3336L43.7823 45.3251C43.9143 45.189 44.0276 45.0725 44.099 44.9984C44.2461 44.8307 44.5176 44.8307 44.6759 44.9536C44.6914 44.9662 44.7079 44.9797 44.7252 44.994L44.7775 45.0374C45.112 45.3162 45.7097 45.8141 46.4631 45.8141C47.7412 45.8141 48.4084 44.7301 49.0079 43.4788C49.0079 43.4788 50.1051 41.2776 50.1616 41.1323C50.1956 41.0318 50.2181 40.92 50.1841 40.8418C49.992 40.4395 44.0087 27.7799 44.0087 27.7799C43.9521 27.6682 43.8503 27.6011 43.7259 27.6011H42.4817C42.2894 27.6011 42.1649 27.4559 42.1197 27.3777C42.0827 27.3102 42.0222 27.2003 41.9488 27.0674L41.9351 27.0424C41.7166 26.6465 41.395 26.0634 41.2374 25.7686C41.0904 25.5005 41.2827 25.1429 41.622 25.1429H49.9807C50.2181 25.1429 50.4105 25.3328 50.4105 25.5675V27.1764C50.4105 27.4111 50.2181 27.6011 49.9807 27.6011H48.9513C48.7251 27.6011 48.5782 27.8246 48.6687 28.0257C48.6687 28.0257 50.9872 33.2773 51.9374 35.4225C52.0392 35.6573 52.4012 35.6573 52.5029 35.4225C53.4303 33.3107 55.7378 28.0145 55.7378 28.0145C55.8056 27.8245 55.6698 27.5899 55.4438 27.5899H55.1044C54.8668 27.5899 54.6745 27.3999 54.6745 27.1654V25.5563C54.6745 25.3216 54.8668 25.1318 55.1044 25.1318H61.4383C61.5628 25.1318 61.7437 25.02 61.7437 24.8189V24.2266C61.7437 21.992 62.2074 20.7517 63.1462 19.6343Z" fill="#8E8E8E"/>
<path fill-rule="evenodd" clip-rule="evenodd" d="M42.3796 38.953C41.4636 38.9978 41.0224 38.5732 41.0224 37.5452V30.2154C41.0224 26.9973 38.2965 24.9638 35.22 24.9638C30.4582 24.9638 28.7389 27.1873 28.5466 29.6902C28.5241 29.936 28.7277 30.1483 28.9878 30.1483H31.3291C31.5554 30.1483 31.7363 29.9807 31.7589 29.7573C31.8834 28.4499 32.7655 27.5114 34.2473 27.5114C35.8873 27.5114 36.8713 28.3158 36.8713 30.1818V31.7685H36.0231C33.1049 31.7685 31.069 32.1372 29.7116 32.9864C28.3545 33.8356 27.6758 35.3664 27.6758 37.1877C27.6758 38.5173 28.1395 39.6235 29.0783 40.495C30.0057 41.3665 31.0917 41.7465 32.528 41.7465C33.365 41.7465 34.1907 41.5677 34.9938 41.199C35.695 40.875 36.385 40.4727 37.0636 39.8694C37.2106 39.7353 37.4482 39.7688 37.5499 39.9475C38.2286 41.0985 38.9411 41.4783 40.3437 41.4783C41.4051 41.4783 42.0057 40.6478 42.4942 39.9723C42.5834 39.8489 42.669 39.7306 42.7528 39.6235C42.9452 39.3665 42.7303 38.9418 42.3796 38.953ZM36.8826 37.7799C36.8826 37.861 36.7521 37.9884 36.6771 38.0613L36.6564 38.0815C36.2267 38.428 35.8081 38.6961 35.4009 38.8749C34.9485 39.076 34.5188 39.1095 34.1003 39.1095C33.4556 39.1095 32.8108 38.8749 32.3811 38.4167C31.9512 37.9587 31.7363 37.3776 31.7363 36.6961C31.7363 35.7351 32.1096 35.0982 32.8334 34.6289C33.5573 34.1596 34.7449 33.925 36.1814 33.925H36.8826V37.7799Z" fill="#8E8E8E"/>
<path d="M7.1806 41.0877L2.70156 27.8135C2.65632 27.6906 2.5432 27.6012 2.40748 27.6012H1.35559C1.11807 27.6012 0.925781 27.4111 0.925781 27.1766V25.5676C0.925781 25.3328 1.11807 25.143 1.35559 25.143H8.16462C8.40214 25.143 8.59444 25.3328 8.59444 25.5676V27.1766C8.59444 27.4111 8.40214 27.6012 8.16462 27.6012H7.30501C7.0901 27.6012 6.94306 27.8135 7.01092 28.0146C7.01092 28.0146 8.68487 32.9869 9.30695 34.8305C9.39743 35.0875 9.78201 35.0986 9.8838 34.8305C10.8791 32.2606 13.5598 25.4112 13.5598 25.4112C13.6163 25.2771 13.7522 25.1318 13.9556 25.1318H15.9803C16.1274 25.1318 16.297 25.2547 16.3648 25.4223C16.3648 25.4223 19.6789 34.4618 19.8146 34.8193C19.9276 35.121 20.3236 35.054 20.4027 34.8193C20.4819 34.5847 22.7102 27.9923 22.7102 27.9923C22.778 27.7911 22.6309 27.59 22.4273 27.59H21.466C21.2283 27.59 21.0361 27.4001 21.0361 27.1654V25.5563C21.0361 25.3218 21.2283 25.1318 21.466 25.1318H27.6529C27.9583 25.1318 28.1505 25.4335 28.0713 25.6681C28.0018 25.8743 27.9169 26.1151 27.8292 26.3639C27.7174 26.681 27.6009 27.0115 27.5059 27.2995C27.4492 27.4559 27.3022 27.59 27.0873 27.59H26.092C25.9564 27.59 25.8431 27.6794 25.7979 27.8023L21.2285 41.0877C21.1719 41.2665 21.0021 41.3782 20.8212 41.3782H18.4009C18.2198 41.3782 18.0502 41.2665 17.9936 41.0989C17.9936 41.0989 14.5552 31.7354 14.4419 31.4226C14.3402 31.1431 13.9556 31.1656 13.8539 31.4114C13.7068 31.7913 10.0535 41.1101 10.0535 41.1101C9.98563 41.2777 9.82729 41.3894 9.64633 41.3894H7.57645C7.4068 41.3782 7.23716 41.2553 7.1806 41.0877Z" fill="#8E8E8E"/>
<path d="M106.457 25.1313C106.241 25.0195 105.699 24.9638 105.235 24.9638C103.357 24.9638 102.464 25.5448 101.276 27.1985C101.107 27.4443 100.711 27.3102 100.711 27.0085V25.556C100.711 25.3213 100.518 25.1313 100.281 25.1313H97.1593C97.0461 25.1313 96.9329 25.1761 96.8424 25.2878C96.8424 25.2878 95.8698 26.4946 95.5418 26.908C95.3495 27.1538 95.4626 27.6119 95.8811 27.6119H96.2657C96.4353 27.6119 96.5711 27.746 96.5711 27.9136V38.6403C96.5711 38.7073 96.5484 38.8079 96.5032 38.8749C96.1978 39.2436 95.4174 40.2157 95.0328 40.6962C94.8066 40.9755 95.0101 41.389 95.3608 41.389H102.08C102.317 41.389 102.509 41.199 102.509 40.9644V39.3777C102.509 39.1431 102.317 38.953 102.08 38.953H101.016C100.846 38.953 100.711 38.819 100.711 38.6514V30.6288C100.711 30.5729 100.733 30.4724 100.756 30.4388C101.491 29.0757 103.142 28.1371 104.364 28.1371C105.207 28.1371 105.61 28.242 106.038 28.3536C106.133 28.3783 106.229 28.4033 106.332 28.4275C106.57 28.4835 106.762 28.2376 106.762 28.003V25.5783C106.751 25.3548 106.604 25.2096 106.457 25.1313Z" fill="#8E8E8E"/>
<path d="M92.2934 38.9311H93.3565C93.7298 38.9311 93.9333 39.3446 93.6619 39.6351C93.4979 39.8363 93.2604 40.1324 93.0229 40.4285C92.7853 40.7246 92.5479 41.0206 92.3838 41.2218C92.3159 41.3112 92.2029 41.3558 92.0785 41.3558L89.8729 41.3446H87.8143L86.6268 41.3558C86.2648 41.3558 86.0499 40.9536 86.2986 40.6519C86.5952 40.2878 87.1203 39.6346 87.4994 39.1631L87.5008 39.1613L87.7577 38.8418C87.7918 38.8195 87.8369 38.7076 87.8369 38.6071V27.8917C87.8369 27.7463 87.7012 27.59 87.5315 27.59H87.1244C86.7738 27.59 86.5701 27.1766 86.7964 26.8972C87.1243 26.5062 87.9275 25.5005 88.0858 25.2994C88.1762 25.1877 88.312 25.1318 88.4364 25.1318H91.5468C91.7843 25.1318 91.988 25.3218 91.988 25.5563V38.6295C91.988 38.7971 92.1238 38.9311 92.2934 38.9311Z" fill="#8E8E8E"/>
<path fill-rule="evenodd" clip-rule="evenodd" d="M84.5789 38.953C83.6628 38.9978 83.2216 38.5732 83.2216 37.5452V30.2154C83.2216 26.9973 80.4957 24.9638 77.4192 24.9638C72.6574 24.9638 70.9382 27.1873 70.7459 29.6902C70.7233 29.936 70.9269 30.1483 71.187 30.1483H73.5283C73.7546 30.1483 73.9356 29.9807 73.9583 29.7573C74.0826 28.4499 74.9648 27.5114 76.4465 27.5114C78.0866 27.5114 79.0707 28.3158 79.0707 30.1818V31.7685H78.2223C75.3041 31.7685 73.2683 32.1372 71.9109 32.9864C70.5537 33.8356 69.875 35.3664 69.875 37.1877C69.875 38.5173 70.3387 39.6235 71.2775 40.495C72.2051 41.3665 73.2909 41.7465 74.7274 41.7465C75.5643 41.7465 76.3899 41.5677 77.193 41.199C77.8943 40.875 78.5842 40.4727 79.2628 39.8694C79.4099 39.7353 79.6474 39.7688 79.7491 39.9475C80.4278 41.0985 81.1405 41.4783 82.5429 41.4783C83.6044 41.4783 84.205 40.6478 84.6934 39.9723C84.7827 39.8489 84.8682 39.7306 84.952 39.6235C85.1557 39.3665 84.9295 38.9418 84.5789 38.953ZM79.0819 37.7799C79.0819 37.861 78.9513 37.9884 78.8763 38.0613L78.8557 38.0815C78.4259 38.428 78.0074 38.6961 77.6002 38.8749C77.1478 39.076 76.718 39.1095 76.2995 39.1095C75.6548 39.1095 75.01 38.8749 74.5803 38.4167C74.1504 37.9587 73.9355 37.3776 73.9355 36.6961C73.9355 35.7351 74.3088 35.0982 75.0327 34.6289C75.7565 34.1596 76.9442 33.925 78.3807 33.925H79.0819V37.7799Z" fill="#8E8E8E"/>
<path fill-rule="evenodd" clip-rule="evenodd" d="M110.086 27.4557H110.323L109.939 26.9305C110.21 26.9082 110.312 26.707 110.312 26.4947C110.312 26.2712 110.199 26.0477 109.894 26.0477H109.34V27.4557H109.532V26.9305H109.713L110.086 27.4557ZM109.544 26.7518V26.2266H109.894C110.052 26.2266 110.12 26.3607 110.12 26.4947C110.12 26.6177 110.052 26.7518 109.883 26.7518H109.544Z" fill="#8E8E8E"/>
<path fill-rule="evenodd" clip-rule="evenodd" d="M109.768 25.5342C109.089 25.5342 108.535 26.0817 108.535 26.7521C108.535 27.4224 109.089 27.9699 109.768 27.9699C110.446 27.9699 111.001 27.4224 111.001 26.7521C111.012 26.0817 110.458 25.5342 109.768 25.5342ZM109.768 25.7129C110.344 25.7129 110.82 26.1822 110.82 26.7521C110.82 27.3219 110.344 27.7912 109.768 27.7912C109.191 27.7912 108.716 27.3219 108.716 26.7521C108.716 26.1822 109.191 25.7129 109.768 25.7129Z" fill="#8E8E8E"/>
</g>
<defs>
<clipPath id="clip0_64_137">
<rect width="111" height="60" fill="white"/>
</clipPath>
</defs>
</svg>
